<svg width="24" height="24" viewBox="0 0 24 24" fill="none" xmlns="http://www.w3.org/2000/svg">
<path d="M10.5734 4.39058C11.0224 3.00861 12.9776 3.00861 13.4266 4.39058L14.3574 7.25532C14.5582 7.87336 15.1341 8.2918 15.784 8.2918H18.7962C20.2492 8.2918 20.8534 10.1512 19.6778 11.0053L17.2409 12.7758C16.7152 13.1578 16.4952 13.8348 16.696 14.4529L17.6268 17.3176C18.0759 18.6996 16.4941 19.8488 15.3186 18.9947L12.8817 17.2242C12.3559 16.8422 11.6441 16.8422 11.1183 17.2242L8.68143 18.9947C7.50586 19.8488 5.92413 18.6996 6.37316 17.3176L7.30397 14.4529C7.50478 13.8348 7.2848 13.1578 6.75907 12.7758L4.32217 11.0053C3.1466 10.1512 3.75076 8.2918 5.20385 8.2918H8.21602C8.86586 8.2918 9.44179 7.87336 9.6426 7.25532L10.5734 4.39058Z" fill="#FFB800"/>
</svg>
