<svg width="80" height="80" viewBox="0 0 80 80" fill="none" xmlns="http://www.w3.org/2000/svg">
<rect width="80" height="80" rx="40" fill="#FDC886" fill-opacity="0.2"/>
<path d="M33.9457 35.6294C34.2489 34.7652 35.8949 34.7652 36.1982 35.6294C36.923 37.6946 38.0047 40.0867 39.4636 41.5457C40.9225 43.0046 43.3147 44.0863 45.3799 44.8111C46.244 45.1144 46.244 46.7603 45.3799 47.0636C43.3147 47.7884 40.9225 48.8701 39.4636 50.329C38.0047 51.7879 36.923 54.1801 36.1982 56.2453C35.8949 57.1094 34.2489 57.1094 33.9457 56.2453C33.2209 54.1801 32.1392 51.7879 30.6803 50.329C29.2213 48.8701 26.8292 47.7884 24.764 47.0636C23.8998 46.7603 23.8998 45.1144 24.764 44.8111C26.8292 44.0863 29.2213 43.0046 30.6803 41.5457C32.1392 40.0867 33.2209 37.6946 33.9457 35.6294Z" fill="#FDC886"/>
<path d="M52.1277 44.5858C52.2715 44.151 53.0765 44.151 53.2203 44.5858C53.6403 45.8558 54.307 47.4331 55.2358 48.362C56.1646 49.2908 57.7419 49.9575 59.012 50.3775C59.4467 50.5213 59.4467 51.3262 59.012 51.47C57.7419 51.89 56.1646 52.5567 55.2358 53.4856C54.307 54.4144 53.6403 55.9917 53.2203 57.2617C53.0765 57.6965 52.2715 57.6965 52.1277 57.2617C51.7077 55.9917 51.041 54.4144 50.1122 53.4856C49.1834 52.5567 47.6061 51.89 46.3361 51.47C45.9013 51.3262 45.9013 50.5213 46.3361 50.3775C47.6061 49.9575 49.1834 49.2908 50.1122 48.362C51.041 47.4331 51.7077 45.8558 52.1277 44.5858Z" fill="#FDC886"/>
<path d="M28.5786 22.7188C28.7224 22.284 29.5274 22.284 29.6712 22.7188C30.0912 23.9888 30.7579 25.5661 31.6867 26.495C32.6155 27.4238 34.1928 28.0905 35.4629 28.5105C35.8976 28.6543 35.8976 29.4592 35.4629 29.603C34.1928 30.023 32.6155 30.6897 31.6867 31.6186C30.7579 32.5474 30.0912 34.1247 29.6712 35.3947C29.5274 35.8295 28.7224 35.8295 28.5786 35.3947C28.1586 34.1247 27.4919 32.5474 26.5631 31.6186C25.6343 30.6897 24.057 30.023 22.787 29.603C22.3522 29.4592 22.3522 28.6543 22.787 28.5105C24.057 28.0905 25.6343 27.4238 26.5631 26.495C27.4919 25.5661 28.1586 23.9888 28.5786 22.7188Z" fill="#FDC886"/>
<path d="M47.1159 24.67C47.4601 23.8213 49.1893 23.8213 49.5335 24.67C50.0539 25.9528 50.7463 27.2697 51.6184 28.1418C52.4906 29.014 53.8074 29.7064 55.0903 30.2267C55.939 30.571 55.939 32.3002 55.0903 32.6444C53.8074 33.1648 52.4906 33.8572 51.6184 34.7293C50.7463 35.6015 50.0539 36.9183 49.5335 38.2012C49.1893 39.0499 47.4601 39.0499 47.1159 38.2012C46.5955 36.9183 45.9031 35.6015 45.0309 34.7293C44.1588 33.8572 42.8419 33.1648 41.5591 32.6444C40.7104 32.3002 40.7104 30.571 41.5591 30.2267C42.8419 29.7064 44.1588 29.014 45.0309 28.1418C45.9031 27.2697 46.5955 25.9528 47.1159 24.67Z" fill="#FDC886"/>
</svg>
